<svg xmlns="http://www.w3.org/2000/svg" viewBox="0 0 100 100" preserveAspectRatio="xMidYMid" width="100" height="100" style="shape-rendering: auto; display: block; background: rgba(255, 255, 255, 0);" xmlns:xlink="http://www.w3.org/1999/xlink"><g><g transform="rotate(0 50 50)">
  <rect fill="#40565d" height="8" width="7" ry="4" rx="3.5" y="25" x="46.5">
    <animate repeatCount="indefinite" begin="-1.2307692307692308s" dur="1.3333333333333333s" keyTimes="0;1" values="1;0" attributeName="opacity"></animate>
  </rect>
</g><g transform="rotate(27.692307692307693 50 50)">
  <rect fill="#40565d" height="8" width="7" ry="4" rx="3.5" y="25" x="46.5">
    <animate repeatCount="indefinite" begin="-1.1282051282051282s" dur="1.3333333333333333s" keyTimes="0;1" values="1;0" attributeName="opacity"></animate>
  </rect>
</g><g transform="rotate(55.38461538461539 50 50)">
  <rect fill="#40565d" height="8" width="7" ry="4" rx="3.5" y="25" x="46.5">
    <animate repeatCount="indefinite" begin="-1.0256410256410255s" dur="1.3333333333333333s" keyTimes="0;1" values="1;0" attributeName="opacity"></animate>
  </rect>
</g><g transform="rotate(83.07692307692308 50 50)">
  <rect fill="#40565d" height="8" width="7" ry="4" rx="3.5" y="25" x="46.5">
    <animate repeatCount="indefinite" begin="-0.9230769230769231s" dur="1.3333333333333333s" keyTimes="0;1" values="1;0" attributeName="opacity"></animate>
  </rect>
</g><g transform="rotate(110.76923076923077 50 50)">
  <rect fill="#40565d" height="8" width="7" ry="4" rx="3.5" y="25" x="46.5">
    <animate repeatCount="indefinite" begin="-0.8205128205128205s" dur="1.3333333333333333s" keyTimes="0;1" values="1;0" attributeName="opacity"></animate>
  </rect>
</g><g transform="rotate(138.46153846153845 50 50)">
  <rect fill="#40565d" height="8" width="7" ry="4" rx="3.5" y="25" x="46.5">
    <animate repeatCount="indefinite" begin="-0.717948717948718s" dur="1.3333333333333333s" keyTimes="0;1" values="1;0" attributeName="opacity"></animate>
  </rect>
</g><g transform="rotate(166.15384615384616 50 50)">
  <rect fill="#40565d" height="8" width="7" ry="4" rx="3.5" y="25" x="46.5">
    <animate repeatCount="indefinite" begin="-0.6153846153846154s" dur="1.3333333333333333s" keyTimes="0;1" values="1;0" attributeName="opacity"></animate>
  </rect>
</g><g transform="rotate(193.84615384615384 50 50)">
  <rect fill="#40565d" height="8" width="7" ry="4" rx="3.5" y="25" x="46.5">
    <animate repeatCount="indefinite" begin="-0.5128205128205128s" dur="1.3333333333333333s" keyTimes="0;1" values="1;0" attributeName="opacity"></animate>
  </rect>
</g><g transform="rotate(221.53846153846155 50 50)">
  <rect fill="#40565d" height="8" width="7" ry="4" rx="3.5" y="25" x="46.5">
    <animate repeatCount="indefinite" begin="-0.41025641025641024s" dur="1.3333333333333333s" keyTimes="0;1" values="1;0" attributeName="opacity"></animate>
  </rect>
</g><g transform="rotate(249.23076923076923 50 50)">
  <rect fill="#40565d" height="8" width="7" ry="4" rx="3.5" y="25" x="46.5">
    <animate repeatCount="indefinite" begin="-0.3076923076923077s" dur="1.3333333333333333s" keyTimes="0;1" values="1;0" attributeName="opacity"></animate>
  </rect>
</g><g transform="rotate(276.9230769230769 50 50)">
  <rect fill="#40565d" height="8" width="7" ry="4" rx="3.5" y="25" x="46.5">
    <animate repeatCount="indefinite" begin="-0.20512820512820512s" dur="1.3333333333333333s" keyTimes="0;1" values="1;0" attributeName="opacity"></animate>
  </rect>
</g><g transform="rotate(304.61538461538464 50 50)">
  <rect fill="#40565d" height="8" width="7" ry="4" rx="3.5" y="25" x="46.5">
    <animate repeatCount="indefinite" begin="-0.10256410256410256s" dur="1.3333333333333333s" keyTimes="0;1" values="1;0" attributeName="opacity"></animate>
  </rect>
</g><g transform="rotate(332.3076923076923 50 50)">
  <rect fill="#40565d" height="8" width="7" ry="4" rx="3.5" y="25" x="46.5">
    <animate repeatCount="indefinite" begin="0s" dur="1.3333333333333333s" keyTimes="0;1" values="1;0" attributeName="opacity"></animate>
  </rect>
</g><g></g></g><!-- [ldio] generated by https://loading.io --></svg>